<svg width="23" height="17" viewBox="0 0 23 17" fill="none" xmlns="http://www.w3.org/2000/svg">
<g clip-path="url(#clip0_183_1775)">
<path d="M1.11039 1.44116H21.8896V15.5588H1.11039V1.44116Z" fill="#FDFDFD"/>
<path d="M9.94156 1.44116H13.0584V15.5588H9.94156V1.44116Z" fill="#FF0000"/>
<path d="M1.11039 7.08826H21.8896V9.91179H1.11039V7.08826Z" fill="#FF0000"/>
<g style="mix-blend-mode:multiply">
<path fill-rule="evenodd" clip-rule="evenodd" d="M5.87818 12.4163C5.91139 11.9215 6.00704 11.5 6.00704 11.5C6.00704 11.5 5.68756 11.5297 5.52597 11.5297C5.36681 11.5297 5.04499 11.5 5.04499 11.5C5.04499 11.5 5.14064 11.9215 5.17386 12.4163C4.62759 12.3861 4.16233 12.2996 4.16233 12.2996C4.16233 12.2996 4.19506 12.5174 4.19506 12.7353C4.19506 12.9533 4.16233 13.171 4.16233 13.171C4.16233 13.171 4.62762 13.0845 5.17386 13.0543C5.14064 13.5491 5.04496 13.9706 5.04496 13.9706C5.04496 13.9706 5.28554 13.9409 5.52597 13.9409C5.76655 13.9409 6.00704 13.9706 6.00704 13.9706C6.00704 13.9706 5.91139 13.5491 5.87815 13.0543C6.42432 13.0845 6.88961 13.171 6.88961 13.171C6.88961 13.171 6.85697 12.8816 6.85697 12.7353C6.85697 12.5911 6.88961 12.2996 6.88961 12.2996C6.88961 12.2996 6.42432 12.3861 5.87818 12.4163ZM17.8261 3.94574C17.8595 3.45092 17.9551 3.02942 17.9551 3.02942C17.9551 3.02942 17.6356 3.05907 17.474 3.05907C17.3149 3.05907 16.9931 3.02942 16.9931 3.02942C16.9931 3.02942 17.0886 3.45092 17.1219 3.94574C16.5756 3.91556 16.1104 3.829 16.1104 3.829C16.1104 3.829 16.1431 4.04686 16.1431 4.26471C16.1431 4.48265 16.1104 4.70042 16.1104 4.70042C16.1104 4.70042 16.5756 4.61386 17.1219 4.58369C17.0887 5.07851 16.9931 5.50001 16.9931 5.50001C16.9931 5.50001 17.2335 5.47036 17.474 5.47036C17.7146 5.47036 17.955 5.50001 17.955 5.50001C17.955 5.50001 17.8595 5.07851 17.8261 4.58369C18.3724 4.61386 18.8377 4.70042 18.8377 4.70042C18.8377 4.70042 18.8049 4.41101 18.8049 4.26471C18.8049 4.12053 18.8377 3.829 18.8377 3.829C18.8377 3.829 18.3724 3.91556 17.8261 3.94574ZM5.87818 3.94574C5.91136 3.45092 6.00704 3.02942 6.00704 3.02942C6.00704 3.02942 5.68756 3.05907 5.52597 3.05907C5.36681 3.05907 5.04499 3.02942 5.04499 3.02942C5.04499 3.02942 5.14064 3.45092 5.17386 3.94574C4.62759 3.91556 4.16233 3.829 4.16233 3.829C4.16233 3.829 4.19506 4.04686 4.19506 4.26471C4.19506 4.48265 4.16233 4.70042 4.16233 4.70042C4.16233 4.70042 4.62762 4.61386 5.17386 4.58369C5.14064 5.07851 5.04496 5.50001 5.04496 5.50001C5.04496 5.50001 5.28554 5.47036 5.52597 5.47036C5.76655 5.47036 6.00704 5.50001 6.00704 5.50001C6.00704 5.50001 5.91139 5.07851 5.87815 4.58369C6.42432 4.61386 6.88961 4.70042 6.88961 4.70042C6.88961 4.70042 6.85697 4.41101 6.85697 4.26471C6.85697 4.12053 6.88961 3.829 6.88961 3.829C6.88961 3.829 6.42432 3.91556 5.87818 3.94574ZM17.8261 12.4163C17.8595 11.9215 17.9551 11.5 17.9551 11.5C17.9551 11.5 17.6356 11.5297 17.474 11.5297C17.3149 11.5297 16.9931 11.5 16.9931 11.5C16.9931 11.5 17.0886 11.9215 17.1219 12.4163C16.5756 12.3861 16.1104 12.2996 16.1104 12.2996C16.1104 12.2996 16.1431 12.5174 16.1431 12.7353C16.1431 12.9533 16.1104 13.171 16.1104 13.171C16.1104 13.171 16.5756 13.0845 17.1219 13.0543C17.0887 13.5491 16.9931 13.9706 16.9931 13.9706C16.9931 13.9706 17.2335 13.9409 17.474 13.9409C17.7146 13.9409 17.955 13.9706 17.955 13.9706C17.955 13.9706 17.8595 13.5491 17.8261 13.0543C18.3724 13.0845 18.8377 13.171 18.8377 13.171C18.8377 13.171 18.8049 12.8816 18.8049 12.7353C18.8049 12.5911 18.8377 12.2996 18.8377 12.2996C18.8377 12.2996 18.3724 12.3861 17.8261 12.4163Z" fill="#FF0000"/>
</g>
<path d="M19.8117 1.20587H3.18831C1.89725 1.20587 0.850647 2.15397 0.850647 3.32352V13.6765C0.850647 14.846 1.89725 15.7941 3.18831 15.7941H19.8117C21.1027 15.7941 22.1493 14.846 22.1493 13.6765V3.32352C22.1493 2.15397 21.1027 1.20587 19.8117 1.20587Z" stroke="#EFEFEF" stroke-width="0.5"/>
</g>
<defs>
<clipPath id="clip0_183_1775">
<rect width="22.8571" height="16" fill="white" transform="translate(0.0714264 0.5)"/>
</clipPath>
</defs>
</svg>
