<svg width="260" height="80" viewBox="0 0 260 80" fill="none" xmlns="http://www.w3.org/2000/svg">
<path d="M90.9697 20.8037V4.86797H93.4309V13.0884H93.4773L100.071 4.86797H102.997L97.8424 11.1596L103.554 20.8037H100.675L96.2635 13.0425L93.4309 15.9816V20.8037H90.9697Z" fill="#FAF9F6"/>
<path d="M104.947 15.3846V4.86797H107.408V15.1091C107.408 16.2112 107.733 17.0379 108.337 17.6349C108.941 18.2319 109.73 18.5075 110.659 18.5075C111.588 18.5075 112.377 18.2319 112.981 17.6349C113.631 17.0379 113.91 16.2112 113.91 15.1091V4.86797H116.371V15.3846C116.371 17.0379 115.813 18.3697 114.699 19.38C113.585 20.3904 112.238 20.8955 110.659 20.8955C109.08 20.8955 107.687 20.3904 106.619 19.38C105.505 18.3697 104.947 17.0838 104.947 15.3846Z" fill="#FAF9F6"/>
<path d="M122.175 20.8037V7.0264H117.764V4.86797H129.002V7.0264H124.59V20.8037H122.175Z" fill="#FAF9F6"/>
<path d="M129.048 20.7577L134.899 4.82204H136.896L142.747 20.7577H140.239L138.986 17.1757H132.902L131.602 20.7577H129.048ZM133.645 15.0631H138.289C137.964 14.0987 137.685 13.318 137.5 12.7669C137.314 12.2158 137.128 11.7107 136.989 11.2974C136.849 10.884 136.71 10.4248 136.571 9.96555C136.432 9.50631 136.246 8.90929 135.967 8.1745C135.735 8.95522 135.503 9.59816 135.364 10.0574C135.224 10.5166 135.085 10.9759 134.899 11.4351C134.713 11.8944 134.574 12.3536 134.388 12.9047C134.203 13.4099 133.97 14.1447 133.645 15.0631Z" fill="#FAF9F6"/>
<path d="M144.836 20.8037V4.86797H147.298V20.7577H144.836V20.8037Z" fill="#FAF9F6"/>
<path d="M149.248 18.7371L150.873 16.9001C151.477 17.3594 152.174 17.7727 152.963 18.0482C153.752 18.3238 154.588 18.5075 155.424 18.5075C156.399 18.5075 157.189 18.3238 157.746 17.9104C158.303 17.4971 158.582 16.992 158.582 16.3031C158.582 15.0631 157.885 14.3284 156.492 14.1447C156.121 14.0987 155.796 14.0528 155.471 14.0069C155.146 13.961 154.774 13.915 154.356 13.8691C152.963 13.6854 151.895 13.1802 151.152 12.3536C150.409 11.527 150.037 10.5626 150.037 9.36854C150.037 7.99081 150.502 6.88863 151.431 6.01607C152.359 5.14351 153.66 4.68427 155.285 4.68427C156.26 4.68427 157.189 4.82204 158.071 5.14351C158.953 5.46498 159.743 5.83237 160.486 6.33754L159.139 8.31228C158.535 7.94489 157.932 7.66934 157.235 7.43972C156.539 7.2101 155.842 7.11825 155.146 7.11825C154.403 7.11825 153.752 7.30195 153.242 7.66934C152.731 8.03673 152.452 8.63375 152.452 9.36854C152.452 9.82778 152.638 10.2411 152.963 10.6544C153.288 11.0677 153.892 11.2974 154.728 11.4351C154.96 11.4811 155.192 11.527 155.517 11.5729C155.842 11.6188 156.167 11.6647 156.539 11.7107C158.025 11.8944 159.139 12.4455 159.882 13.318C160.579 14.2365 160.95 15.2009 160.95 16.3031C160.95 17.7727 160.439 18.9208 159.418 19.7015C158.396 20.5281 157.003 20.8955 155.285 20.8955C153.009 20.8955 150.92 20.2067 149.248 18.7371Z" fill="#FAF9F6"/>
<path d="M163.644 20.8037V4.86797H166.105V20.7577H163.644V20.8037Z" fill="#FAF9F6"/>
<path d="M90.9697 47.6234V31.6877H93.4309V47.5775H90.9697V47.6234Z" fill="#FAF9F6"/>
<path d="M96.8208 47.6234V31.6877H99.1426L106.433 42.9851H106.48V31.6877H108.941V47.5775H106.619L99.3284 36.2801H99.282V47.5775H96.8208V47.6234Z" fill="#FAF9F6"/>
<path d="M114.978 47.6234V33.8462H110.566V31.6877H121.804V33.8462H117.392V47.6234H114.978Z" fill="#FAF9F6"/>
<path d="M123.568 47.6234V31.6877H133.831V33.9839H125.983V38.5304H132.67V40.6889H125.983V45.3731H133.831V47.6234H123.568Z" fill="#FAF9F6"/>
<path d="M136.106 47.6234V31.6877H142.375C143.769 31.6877 144.837 32.0551 145.626 32.744C146.09 33.1114 146.462 33.6165 146.787 34.2135C147.112 34.8106 147.251 35.4535 147.251 36.1424C147.251 37.1527 146.973 38.0712 146.415 38.8519C145.858 39.6326 145.115 40.1837 144.14 40.5511L147.855 47.6234H144.976L141.679 40.8266H138.568V47.6234H136.106ZM138.568 33.8462V38.6682H142.236C143.165 38.6682 143.815 38.3926 144.279 37.9334C144.744 37.4742 144.976 36.8312 144.976 36.1883C144.976 35.3617 144.697 34.7646 144.14 34.3972C143.676 34.0758 143.072 33.8921 142.375 33.8921L138.568 33.8462Z" fill="#FAF9F6"/>
<path d="M149.898 47.6234V31.6877H152.22L159.511 42.9851H159.557V31.6877H162.018V47.5775H159.696L152.406 36.2801H152.359V47.5775H149.898V47.6234Z" fill="#FAF9F6"/>
<path d="M163.69 47.5775L169.541 31.6877H171.538L177.389 47.6234H174.835L173.581 44.0413H167.498L166.198 47.6234H163.69V47.5775ZM168.241 41.8829H172.884C172.559 40.9185 172.281 40.1378 172.095 39.5867C171.909 39.0356 171.724 38.5304 171.584 38.1171C171.445 37.7038 171.306 37.2445 171.166 36.8312C171.027 36.372 170.841 35.775 170.563 35.0402C170.33 35.8209 170.098 36.4638 169.959 36.9231C169.82 37.3823 169.68 37.8416 169.495 38.3008C169.309 38.76 169.169 39.2193 168.984 39.7704C168.798 40.2296 168.566 40.9644 168.241 41.8829Z" fill="#FAF9F6"/>
<path d="M182.172 47.6234V33.8462H177.76V31.6877H188.998V33.8462H184.586V47.6234H182.172Z" fill="#FAF9F6"/>
<path d="M190.763 47.6234V31.6877H193.224V47.5775H190.763V47.6234Z" fill="#FAF9F6"/>
<path d="M196.01 39.6785C196.01 37.7497 196.056 36.5557 196.149 35.9587C196.242 35.4076 196.428 34.9024 196.707 34.4432C197.078 33.7543 197.682 33.1114 198.564 32.4684C199.446 31.8714 200.468 31.5499 201.768 31.5499C203.022 31.5499 204.09 31.8714 204.926 32.4684C205.808 33.0654 206.412 33.7543 206.783 34.4432C207.016 34.9024 207.201 35.4076 207.341 35.9587C207.48 36.5098 207.48 37.7497 207.48 39.6785C207.48 41.6074 207.433 42.8014 207.341 43.3984C207.248 43.9495 207.062 44.4547 206.783 44.9139C206.412 45.6028 205.762 46.2457 204.926 46.8427C204.09 47.4397 203.022 47.7612 201.768 47.7612C200.514 47.7612 199.446 47.4397 198.564 46.8427C197.682 46.2457 197.078 45.6028 196.707 44.9139C196.428 44.4547 196.242 43.9495 196.149 43.3984C196.056 42.8473 196.01 41.5614 196.01 39.6785ZM198.471 39.6785C198.471 41.3318 198.518 42.3881 198.657 42.8473C198.796 43.3525 198.982 43.7658 199.307 44.1791C199.539 44.5006 199.864 44.7761 200.282 45.0057C200.7 45.2354 201.211 45.3731 201.768 45.3731C202.325 45.3731 202.836 45.2354 203.254 45.0057C203.672 44.7761 203.997 44.5006 204.229 44.1791C204.554 43.7658 204.74 43.3525 204.879 42.8473C205.019 42.3421 205.065 41.2859 205.065 39.6785C205.065 38.0253 205.019 36.969 204.879 36.5098C204.74 36.0505 204.554 35.5913 204.229 35.178C203.997 34.8565 203.672 34.5809 203.254 34.3513C202.836 34.1217 202.325 33.9839 201.768 33.9839C201.211 33.9839 200.7 34.1217 200.282 34.3513C199.864 34.5809 199.539 34.8565 199.307 35.178C198.982 35.5913 198.796 36.0505 198.657 36.5098C198.518 36.969 198.471 38.0253 198.471 39.6785Z" fill="#FAF9F6"/>
<path d="M210.359 47.6234V31.6877H212.681L219.971 42.9851H220.018V31.6877H222.479V47.5775H220.157L212.866 36.2801H212.82V47.5775H210.359V47.6234Z" fill="#FAF9F6"/>
<path d="M224.104 47.5775L230.002 31.6877H231.999L237.85 47.6234H235.296L234.042 44.0413H227.959L226.658 47.6234H224.104V47.5775ZM228.701 41.8829H233.345C233.02 40.9185 232.741 40.1378 232.556 39.5867C232.37 39.0356 232.184 38.5304 232.045 38.1171C231.906 37.7038 231.766 37.2445 231.627 36.8312C231.488 36.372 231.302 35.775 231.023 35.0402C230.791 35.8209 230.559 36.4638 230.42 36.9231C230.28 37.3823 230.141 37.8416 229.955 38.3008C229.77 38.76 229.63 39.2193 229.444 39.7704C229.259 40.2296 229.027 40.9644 228.701 41.8829Z" fill="#FAF9F6"/>
<path d="M239.893 47.6234V31.6877H242.354V45.3272H250.202V47.5775H239.893V47.6234Z" fill="#FAF9F6"/>
<path d="M90.6912 69.07V58.5534H93.1523V68.7945C93.1523 69.8967 93.4774 70.7233 94.0811 71.3203C94.6847 71.9173 95.4742 72.1929 96.4029 72.1929C97.3316 72.1929 98.1211 71.9173 98.7247 71.3203C99.3749 70.7233 99.6535 69.8967 99.6535 68.7945V58.5534H102.115V69.07C102.115 70.7233 101.557 72.0551 100.443 73.0654C99.3284 74.0758 97.9818 74.5809 96.4029 74.5809C94.824 74.5809 93.4309 74.0758 92.3629 73.0654C91.2484 72.0551 90.6912 70.7233 90.6912 69.07Z" fill="#FAF9F6"/>
<path d="M105.226 74.4432V58.5534H107.548L114.838 69.8507H114.885V58.5534H117.346V74.4432H115.024L107.733 63.0999H107.687V74.3972L105.226 74.4432Z" fill="#FAF9F6"/>
<path d="M120.689 74.4432V58.5534H123.151V74.4432H120.689Z" fill="#FAF9F6"/>
<path d="M130.162 74.4432L124.869 58.5534H127.423L131.091 70.6774H131.138L134.806 58.5534H137.36L132.066 74.4432H130.162Z" fill="#FAF9F6"/>
<path d="M139.078 74.4432V58.5534H149.341V60.8496H141.493V65.3961H148.18V67.5545H141.493V72.2388H149.341V74.4891L139.078 74.4432Z" fill="#FAF9F6"/>
<path d="M151.616 74.4432V58.5534H157.885C159.278 58.5534 160.346 58.9208 161.136 59.6096C161.6 59.977 161.972 60.4822 162.297 61.0792C162.622 61.6762 162.761 62.3192 162.761 63.008C162.761 64.0184 162.482 64.9368 161.925 65.7176C161.368 66.4983 160.625 67.0494 159.65 67.3708L163.365 74.4432H160.486L157.189 67.6464H154.077V74.4432H151.616ZM154.077 60.6659V65.4879H157.746C158.675 65.4879 159.325 65.2124 159.789 64.7531C160.253 64.2939 160.486 63.651 160.486 62.9621C160.486 62.1355 160.207 61.5384 159.65 61.1711C159.185 60.8496 158.582 60.6659 157.885 60.6659H154.077Z" fill="#FAF9F6"/>
<path d="M164.015 72.3766L165.64 70.5855C166.244 71.0907 166.94 71.4581 167.73 71.7336C168.519 72.0092 169.355 72.147 170.191 72.147C171.166 72.147 171.956 71.9633 172.513 71.55C173.07 71.1366 173.349 70.5855 173.349 69.9426C173.349 68.7026 172.652 67.9679 171.259 67.7842C170.888 67.7382 170.562 67.6923 170.237 67.6464C169.912 67.6005 169.541 67.5545 169.123 67.5086C167.73 67.3249 166.662 66.8198 165.919 65.9931C165.176 65.1665 164.804 64.2021 164.804 63.054C164.804 61.7222 165.269 60.5741 166.197 59.7015C167.126 58.8289 168.426 58.4156 170.052 58.4156C171.027 58.4156 171.956 58.5534 172.838 58.8749C173.72 59.1963 174.51 59.5637 175.253 60.0689L173.906 62.0436C173.302 61.6762 172.699 61.4007 172.002 61.1711C171.305 60.9415 170.609 60.8496 169.912 60.8496C169.169 60.8496 168.519 61.0333 168.008 61.4007C167.498 61.7681 167.219 62.3651 167.219 63.0999C167.219 63.5591 167.405 63.9725 167.73 64.3858C168.055 64.7991 168.659 65.0287 169.494 65.1665C169.727 65.2124 169.959 65.2583 170.284 65.3043C170.609 65.3502 170.934 65.3961 171.305 65.442C172.791 65.6257 173.906 66.1768 174.649 67.0494C175.345 67.9219 175.717 68.9323 175.717 70.0345C175.717 71.504 175.206 72.6521 174.185 73.4328C173.163 74.2595 171.77 74.6269 170.052 74.6269C167.73 74.5809 165.687 73.8462 164.015 72.3766Z" fill="#FAF9F6"/>
<path d="M178.364 74.4432V58.5534H180.825V74.4432H178.364Z" fill="#FAF9F6"/>
<path d="M186.955 74.4432V60.6659H182.543V58.5075H193.781V60.6659H189.369V74.4432H186.955Z" fill="#FAF9F6"/>
<path d="M198.285 74.4432V67.9219L193.456 58.5534H196.01L199.446 65.6257L202.836 58.5534H205.39L200.607 67.876V74.3972L198.285 74.4432Z" fill="#FAF9F6"/>
<path d="M17.739 19.38C21.9706 19.38 25.4011 15.9875 25.4011 11.8025C25.4011 7.6176 21.9706 4.22504 17.739 4.22504C13.5073 4.22504 10.0769 7.6176 10.0769 11.8025C10.0769 15.9875 13.5073 19.38 17.739 19.38Z" fill="#FAF9F6"/>
<path d="M17.739 75.3617C21.9706 75.3617 25.4011 71.9691 25.4011 67.7842C25.4011 63.5992 21.9706 60.2067 17.739 60.2067C13.5073 60.2067 10.0769 63.5992 10.0769 67.7842C10.0769 71.9691 13.5073 75.3617 17.739 75.3617Z" fill="#FAF9F6"/>
<path d="M17.739 47.3938C21.9706 47.3938 25.4011 44.0012 25.4011 39.8163C25.4011 35.6314 21.9706 32.2388 17.739 32.2388C13.5073 32.2388 10.0769 35.6314 10.0769 39.8163C10.0769 44.0012 13.5073 47.3938 17.739 47.3938Z" fill="#FAF9F6"/>
<path d="M50.1517 74.3973H72.3021L45.7402 48.1286C42.6754 45.0976 37.7067 45.0976 34.6883 48.1286C31.6234 51.1596 31.6234 56.0735 34.6883 59.0586L50.1517 74.3973Z" fill="#FAF9F6"/>
<path d="M50.1518 4.50058H72.3022L45.6939 30.7692C42.629 33.8002 37.6603 33.8002 34.6419 30.7692C31.5771 27.7382 31.5771 22.8243 34.6419 19.8393L50.1518 4.50058Z" fill="#FAF9F6"/>
</svg>
