<svg width="178" height="56" viewBox="0 0 178 56" fill="none" xmlns="http://www.w3.org/2000/svg">
<path d="M62.2844 14.7892V3.85364H63.9534V9.49037H63.9916L68.5186 3.85364H70.5055L66.9767 8.1704L70.8743 14.7892H68.8937L65.8863 9.44616L63.9534 11.4577V14.7892H62.2844Z" fill="#1B3D6E"/>
<path d="M71.8345 11.0882V3.85364H73.5035V10.9019C73.5035 11.6566 73.7197 12.2345 74.1488 12.6324C74.578 13.0303 75.1121 13.2292 75.7479 13.2292C76.3837 13.2292 76.9146 13.0303 77.347 12.6324C77.7762 12.2345 77.9924 11.6566 77.9924 10.9019V3.85364H79.6614V11.0882C79.6614 12.2282 79.2799 13.1471 78.5201 13.8387C77.7603 14.5303 76.8352 14.8776 75.7479 14.8776C74.6543 14.8776 73.7292 14.5303 72.9726 13.8387C72.216 13.1471 71.8345 12.2314 71.8345 11.0882Z" fill="#1B3D6E"/>
<path d="M83.6544 14.7892V5.32519H80.6406V3.85364H88.3404V5.32519H85.3266V14.7892H83.6544Z" fill="#1B3D6E"/>
<path d="M88.3594 14.7829L92.3777 3.841H93.7543L97.7726 14.7829H96.021L95.1753 12.3135H90.998L90.1206 14.7829H88.3594ZM91.4876 10.8482H94.6762C94.4441 10.1725 94.2629 9.6451 94.1294 9.25985C93.9959 8.87775 93.8814 8.5367 93.7829 8.24302C93.6843 7.94935 93.5858 7.64619 93.4841 7.34304C93.3823 7.03673 93.2488 6.62621 93.0835 6.10517C92.9086 6.64516 92.7656 7.07778 92.6607 7.39988C92.5558 7.72198 92.454 8.03461 92.3555 8.3346C92.2569 8.6346 92.1425 8.96933 92.0153 9.33879C91.885 9.71142 91.7101 10.2135 91.4876 10.8482Z" fill="#1B3D6E"/>
<path d="M99.1587 14.7892V3.85364H100.828V14.7892H99.1587Z" fill="#1B3D6E"/>
<path d="M102.188 13.3777L103.291 12.1303C103.705 12.4619 104.182 12.7272 104.719 12.9261C105.259 13.125 105.822 13.2261 106.41 13.2261C107.09 13.2261 107.624 13.0872 108.012 12.8061C108.4 12.5251 108.594 12.1587 108.594 11.704C108.594 10.8419 108.114 10.3493 107.157 10.2262C106.906 10.1977 106.671 10.1662 106.455 10.1346C106.238 10.103 105.987 10.0683 105.698 10.0304C104.747 9.9009 104.019 9.55354 103.52 8.99144C103.021 8.42935 102.773 7.75041 102.773 6.95464C102.773 6.02308 103.088 5.25888 103.714 4.65889C104.34 4.05891 105.224 3.75891 106.362 3.75891C107.043 3.75891 107.682 3.86628 108.283 4.08101C108.883 4.29574 109.433 4.56732 109.939 4.89889L109.011 6.26623C108.607 6.01676 108.174 5.81466 107.71 5.65677C107.246 5.50204 106.772 5.42309 106.289 5.42309C105.774 5.42309 105.339 5.55256 104.983 5.81466C104.623 6.0736 104.445 6.46518 104.445 6.98622C104.445 7.29569 104.566 7.58621 104.808 7.85778C105.049 8.12935 105.45 8.30619 106.009 8.39145C106.156 8.41672 106.331 8.44198 106.537 8.4704C106.744 8.49882 106.979 8.52724 107.246 8.55566C108.273 8.68197 109.033 9.05144 109.526 9.66722C110.015 10.283 110.263 10.9619 110.263 11.7072C110.263 12.7114 109.913 13.4945 109.214 14.0503C108.515 14.6061 107.574 14.884 106.394 14.884C104.738 14.8808 103.336 14.3787 102.188 13.3777Z" fill="#1B3D6E"/>
<path d="M112.024 14.7892V3.85364H113.693V14.7892H112.024Z" fill="#1B3D6E"/>
<path d="M62.2844 33.2342V22.2986H63.9534V33.2342H62.2844Z" fill="#1B3D6E"/>
<path d="M66.2742 33.2342V22.2986H67.8542L72.8326 30.0732H72.8644V22.2986H74.543V33.2342H72.963L67.9845 25.4596H67.9464V33.2342H66.2742Z" fill="#1B3D6E"/>
<path d="M78.7267 33.2342V23.7701H75.7129V22.2986H83.4126V23.7701H80.3989V33.2342H78.7267Z" fill="#1B3D6E"/>
<path d="M84.5889 33.2342V22.2986H91.6305V23.868H86.2579V26.9817H90.8358V28.4595H86.2579V31.671H91.6305V33.231H84.5889V33.2342Z" fill="#1B3D6E"/>
<path d="M93.1885 33.2342V22.2986H97.4961C98.4371 22.2986 99.1842 22.5386 99.7342 23.0186C100.043 23.2838 100.303 23.6154 100.516 24.0164C100.729 24.4175 100.837 24.8627 100.837 25.3522C100.837 26.0564 100.647 26.6817 100.268 27.2248C99.8868 27.768 99.3654 28.1501 98.701 28.3774L101.254 33.2342H99.2732L97.0002 28.5669H94.8607V33.2342H93.1885ZM94.8575 23.7701V27.0859H97.3817C98.008 27.0859 98.4753 26.9122 98.7868 26.568C99.0984 26.2238 99.2542 25.8164 99.2542 25.3522C99.2542 24.7964 99.0666 24.3828 98.6946 24.1049C98.3831 23.8807 97.9762 23.767 97.4771 23.767H94.8575V23.7701Z" fill="#1B3D6E"/>
<path d="M102.627 33.2342V22.2986H104.207L109.185 30.0732H109.217V22.2986H110.896V33.2342H109.316L104.337 25.4596H104.299V33.2342H102.627Z" fill="#1B3D6E"/>
<path d="M112.047 33.2278L116.065 22.2859H117.442L121.46 33.2278H119.708L118.863 30.7584H114.685L113.808 33.2278H112.047ZM115.175 29.2932H118.363C118.131 28.6174 117.95 28.0901 117.817 27.7048C117.683 27.3227 117.569 26.9817 117.47 26.688C117.372 26.3943 117.273 26.0911 117.171 25.788C117.07 25.4817 116.936 25.0712 116.771 24.5501C116.596 25.0901 116.453 25.5227 116.348 25.8448C116.243 26.1669 116.141 26.4796 116.043 26.7795C115.944 27.0795 115.83 27.4143 115.703 27.7869C115.572 28.1564 115.397 28.6585 115.175 29.2932Z" fill="#1B3D6E"/>
<path d="M124.719 33.2342V23.7701H121.705V22.2986H129.405V23.7701H126.391V33.2342H124.719Z" fill="#1B3D6E"/>
<path d="M130.584 33.2342V22.2986H132.253V33.2342H130.584Z" fill="#1B3D6E"/>
<path d="M134.202 27.7711C134.202 26.4543 134.237 25.608 134.307 25.2259C134.377 24.8469 134.504 24.4964 134.685 24.1743C134.942 23.7007 135.365 23.2522 135.95 22.8323C136.538 22.4123 137.263 22.2007 138.131 22.2007C138.993 22.2007 139.717 22.4123 140.302 22.8323C140.89 23.2522 141.316 23.7007 141.583 24.1743C141.758 24.4933 141.882 24.8438 141.952 25.2259C142.022 25.608 142.057 26.4543 142.057 27.7711C142.057 29.0879 142.022 29.9342 141.952 30.3163C141.882 30.6953 141.758 31.0458 141.583 31.3679C141.316 31.8479 140.89 32.2931 140.302 32.7068C139.714 33.1205 138.993 33.3257 138.131 33.3257C137.266 33.3257 136.538 33.1205 135.95 32.7068C135.362 32.2931 134.942 31.8479 134.685 31.3679C134.504 31.0489 134.377 30.6984 134.307 30.3163C134.237 29.9342 134.202 29.0879 134.202 27.7711ZM135.871 27.7711C135.871 28.8953 135.909 29.6279 135.988 29.9626C136.068 30.2974 136.214 30.6005 136.43 30.8721C136.596 31.0931 136.824 31.2826 137.111 31.4373C137.397 31.5952 137.737 31.6742 138.131 31.6742C138.525 31.6742 138.865 31.5952 139.151 31.4373C139.438 31.2795 139.667 31.09 139.832 30.8721C140.048 30.6005 140.194 30.3005 140.274 29.9626C140.353 29.6279 140.391 28.8984 140.391 27.7711C140.391 26.6501 140.353 25.9206 140.274 25.5859C140.194 25.2512 140.048 24.9417 139.832 24.6638C139.667 24.4522 139.438 24.2691 139.151 24.108C138.865 23.947 138.525 23.868 138.131 23.868C137.737 23.868 137.397 23.947 137.111 24.108C136.824 24.2691 136.596 24.4522 136.43 24.6638C136.214 24.9448 136.065 25.2512 135.988 25.5859C135.912 25.9206 135.871 26.6501 135.871 27.7711Z" fill="#1B3D6E"/>
<path d="M144.009 33.2342V22.2986H145.589L150.568 30.0732H150.6V22.2986H152.278V33.2342H150.698L145.72 25.4596H145.681V33.2342H144.009Z" fill="#1B3D6E"/>
<path d="M153.432 33.2278L157.45 22.2859H158.827L162.845 33.2278H161.093L160.248 30.7584H156.071L155.193 33.2278H153.432ZM156.56 29.2932H159.749C159.517 28.6174 159.335 28.0901 159.202 27.7048C159.068 27.3227 158.954 26.9817 158.855 26.688C158.757 26.3943 158.658 26.0911 158.557 25.788C158.455 25.4817 158.321 25.0712 158.156 24.5501C157.981 25.0901 157.838 25.5227 157.733 25.8448C157.628 26.1669 157.527 26.4796 157.428 26.7795C157.329 27.0795 157.215 27.4143 157.088 27.7869C156.957 28.1564 156.783 28.6585 156.56 29.2932Z" fill="#1B3D6E"/>
<path d="M164.228 33.2342V22.2986H165.897V31.6742H171.27V33.2342H164.228Z" fill="#1B3D6E"/>
<path d="M62.0874 47.9781V40.7435H63.7564V47.7918C63.7564 48.5465 63.9726 49.1244 64.4018 49.5222C64.831 49.9201 65.365 50.1191 66.0009 50.1191C66.6367 50.1191 67.1676 49.9201 67.5999 49.5222C68.0291 49.1244 68.2453 48.5465 68.2453 47.7918V40.7435H69.9143V47.9781C69.9143 49.118 69.5328 50.037 68.773 50.7285C68.0132 51.4201 67.0881 51.7675 66.0009 51.7675C64.9072 51.7675 63.9821 51.4201 63.2255 50.7285C62.4689 50.037 62.0874 49.1212 62.0874 47.9781Z" fill="#1B3D6E"/>
<path d="M72.0315 51.6791V40.7435H73.6115L78.5899 48.5181H78.6217V40.7435H80.3003V51.6791H78.7203L73.7418 43.9045H73.7037V51.6791H72.0315Z" fill="#1B3D6E"/>
<path d="M82.6116 51.6791V40.7435H84.2806V51.6791H82.6116Z" fill="#1B3D6E"/>
<path d="M89.0936 51.6791L85.46 40.7435H87.2212L89.7295 49.0675H89.7581L92.2664 40.7435H94.0276L90.3939 51.6791H89.0936Z" fill="#1B3D6E"/>
<path d="M95.1975 51.6791V40.7435H102.239V42.3129H96.8665V45.4265H101.444V46.9044H96.8665V50.1159H102.239V51.6759H95.1975V51.6791Z" fill="#1B3D6E"/>
<path d="M103.797 51.6791V40.7435H108.105C109.046 40.7435 109.793 40.9835 110.343 41.4635C110.651 41.7287 110.912 42.0603 111.125 42.4613C111.338 42.8624 111.446 43.3076 111.446 43.7971C111.446 44.5013 111.255 45.1265 110.877 45.6697C110.495 46.2128 109.974 46.5981 109.309 46.8223L111.862 51.6791H109.882L107.609 47.0118H105.469V51.6791H103.797ZM105.466 42.215V45.5339H107.99C108.616 45.5339 109.084 45.3602 109.395 45.016C109.707 44.6718 109.863 44.2645 109.863 43.8003C109.863 43.2445 109.675 42.8308 109.303 42.5529C108.991 42.3287 108.585 42.215 108.085 42.215H105.466Z" fill="#1B3D6E"/>
<path d="M112.276 50.2675L113.379 49.0202C113.792 49.3517 114.269 49.617 114.806 49.8159C115.347 50.0149 115.909 50.1159 116.497 50.1159C117.178 50.1159 117.712 49.977 118.1 49.6959C118.488 49.4149 118.681 49.0486 118.681 48.5939C118.681 47.7318 118.201 47.2391 117.245 47.116C116.993 47.0844 116.758 47.056 116.542 47.0244C116.326 46.9928 116.075 46.9581 115.785 46.9202C114.835 46.7907 114.107 46.4434 113.608 45.8813C113.109 45.3192 112.861 44.6402 112.861 43.8445C112.861 42.9129 113.175 42.1487 113.802 41.5487C114.428 40.9487 115.312 40.6487 116.45 40.6487C117.13 40.6487 117.769 40.7561 118.37 40.9708C118.971 41.1856 119.521 41.4571 120.026 41.7887L119.098 43.1561C118.694 42.9066 118.262 42.7045 117.798 42.5498C117.334 42.395 116.86 42.3161 116.377 42.3161C115.862 42.3161 115.426 42.4456 115.07 42.7077C114.711 42.9666 114.533 43.3582 114.533 43.8792C114.533 44.1887 114.654 44.4792 114.895 44.7508C115.137 45.0223 115.537 45.1992 116.097 45.2844C116.243 45.3097 116.418 45.335 116.625 45.3634C116.831 45.3918 117.067 45.4202 117.334 45.4486C118.36 45.575 119.12 45.9444 119.613 46.5602C120.103 47.176 120.351 47.8549 120.351 48.6002C120.351 49.6044 120.001 50.3875 119.301 50.9433C118.602 51.4991 117.661 51.777 116.482 51.777C114.825 51.7706 113.423 51.2685 112.276 50.2675Z" fill="#1B3D6E"/>
<path d="M122.112 51.6791V40.7435H123.781V51.6791H122.112Z" fill="#1B3D6E"/>
<path d="M127.977 51.6791V42.215H124.963V40.7435H132.663V42.215H129.649V51.6791H127.977Z" fill="#1B3D6E"/>
<path d="M135.759 51.6791V47.1823L132.456 40.7435H134.208L136.551 45.6002L138.884 40.7435H140.646L137.336 47.1854V51.6822H135.759V51.6791Z" fill="#1B3D6E"/>
<path d="M12.1346 13.826C15.0264 13.826 17.3706 11.4975 17.3706 8.62509C17.3706 5.75268 15.0264 3.42413 12.1346 3.42413C9.2429 3.42413 6.89868 5.75268 6.89868 8.62509C6.89868 11.4975 9.2429 13.826 12.1346 13.826Z" fill="#1B3D6E"/>
<path d="M12.1346 52.3201C15.0264 52.3201 17.3706 49.9915 17.3706 47.1191C17.3706 44.2467 15.0264 41.9182 12.1346 41.9182C9.2429 41.9182 6.89868 44.2467 6.89868 47.1191C6.89868 49.9915 9.2429 52.3201 12.1346 52.3201Z" fill="#1B3D6E"/>
<path d="M12.1346 33.073C15.0264 33.073 17.3706 30.7445 17.3706 27.8721C17.3706 24.9997 15.0264 22.6711 12.1346 22.6711C9.2429 22.6711 6.89868 24.9997 6.89868 27.8721C6.89868 30.7445 9.2429 33.073 12.1346 33.073Z" fill="#3C70AF"/>
<path d="M34.3276 51.66H49.476L31.2853 33.5909C29.1934 31.5131 25.8013 31.5131 23.7127 33.5909C21.6208 35.6688 21.6208 39.0382 23.7127 41.1129L34.3276 51.66Z" fill="#1B3D6E"/>
<path d="M34.3277 3.57892H49.4761L31.2853 21.6512C29.1935 23.7291 25.8014 23.7291 23.7128 21.6512C21.6178 19.5733 21.6178 16.2039 23.7096 14.1261L34.3277 3.57892Z" fill="#3C70AF"/>
</svg>
