<svg width="23" height="17" viewBox="0 0 23 17" fill="none" xmlns="http://www.w3.org/2000/svg">
<g clip-path="url(#clip0_183_1784)">
<mask id="mask0_183_1784" style="mask-type:luminance" maskUnits="userSpaceOnUse" x="1" y="1" width="21" height="15">
<path d="M19.8117 1.77731H3.18831C2.0407 1.77731 1.11039 2.57994 1.11039 3.57003V13.43C1.11039 14.4201 2.0407 15.2227 3.18831 15.2227H19.8117C20.9593 15.2227 21.8896 14.4201 21.8896 13.43V3.57003C21.8896 2.57994 20.9593 1.77731 19.8117 1.77731Z" fill="white"/>
</mask>
<g mask="url(#mask0_183_1784)">
<path fill-rule="evenodd" clip-rule="evenodd" d="M1.11039 1.77731H30.7211V2.81159H1.11039V1.77731ZM1.11039 3.84585H30.7211V4.88012H1.11039V3.84585ZM1.11039 5.91439H30.7211V6.94867H1.11039V5.91439ZM1.11039 7.98293H30.7211V9.0172H1.11039V7.98293ZM1.11039 10.0515H30.7211V11.0857H1.11039V10.0515ZM1.11039 12.12H30.7211V13.1543H1.11039V12.12ZM1.11039 14.1886H30.7211V15.2228H1.11039V14.1886Z" fill="#BD3D44"/>
<path fill-rule="evenodd" clip-rule="evenodd" d="M1.11039 2.81198H30.7211V3.84624H1.11039V2.81198ZM1.11039 4.88052H30.7211V5.91479H1.11039V4.88052ZM1.11039 6.94906H30.7211V7.98333H1.11039V6.94906ZM1.11039 9.0176H30.7211V10.0519H1.11039V9.0176ZM1.11039 11.0862H30.7211V12.1204H1.11039V11.0862ZM1.11039 13.1547H30.7211V14.1889H1.11039V13.1547Z" fill="white"/>
<path fill-rule="evenodd" clip-rule="evenodd" d="M1.11039 1.77731H12.9545V9.01708H1.11039V1.77731Z" fill="#192F5D"/>
<path fill-rule="evenodd" clip-rule="evenodd" d="M2.09855 2.08719L2.2063 2.37332H2.55507L2.27291 2.55019L2.38069 2.83633L2.09852 2.65949L1.81642 2.83633L1.92417 2.55019L1.64204 2.37332H1.99077L2.09855 2.08719ZM4.07257 2.08719L4.18035 2.37332H4.52912L4.24696 2.55019L4.35474 2.83633L4.07257 2.65949L3.79047 2.83633L3.89822 2.55019L3.61609 2.37332H3.96482L4.07257 2.08719ZM6.04668 2.08719L6.15443 2.37332H6.5032L6.22103 2.55019L6.32881 2.83633L6.04668 2.65949L5.76455 2.83633L5.8723 2.55019L5.59017 2.37332H5.93893L6.04668 2.08719ZM8.02066 2.08719L8.12841 2.37332H8.47715L8.19501 2.55019L8.30277 2.83633L8.02066 2.65949L7.7385 2.83633L7.84628 2.55019L7.56412 2.37332H7.91288L8.02066 2.08719ZM9.99474 2.08719L10.1025 2.37332H10.4513L10.1691 2.55019L10.2769 2.83633L9.99471 2.65949L9.71261 2.83633L9.82036 2.55019L9.53823 2.37332H9.88696L9.99474 2.08719ZM11.9688 2.08719L12.0766 2.37332H12.4253L12.1432 2.55019L12.251 2.83633L11.9688 2.65949L11.6867 2.83633L11.7944 2.55019L11.5123 2.37332H11.861L11.9688 2.08719ZM3.08561 2.8112L3.19336 3.09733H3.54213L3.25996 3.27416L3.36777 3.56033L3.08561 3.38348L2.80348 3.56033L2.91123 3.27416L2.6291 3.09733H2.97786L3.08561 2.8112ZM5.05959 2.8112L5.16734 3.09733H5.51608L5.23395 3.27416L5.3417 3.56033L5.05959 3.38348L4.77743 3.56033L4.88521 3.27416L4.60305 3.09733H4.95181L5.05959 2.8112ZM7.03367 2.8112L7.14142 3.09733H7.49019L7.20802 3.27416L7.3158 3.56033L7.03364 3.38348L6.75154 3.56033L6.85929 3.27416L6.57716 3.09733H6.92589L7.03367 2.8112ZM9.00775 2.8112L9.1155 3.09733H9.46427L9.1821 3.27416L9.28988 3.56033L9.00775 3.38348L8.72559 3.56033L8.83343 3.27416L8.55127 3.09733H8.90003L9.00775 2.8112ZM10.9818 2.8112L11.0895 3.09733H11.4382L11.1561 3.27416L11.2638 3.56033L10.9818 3.38348L10.6996 3.56033L10.8073 3.27416L10.5251 3.09733H10.8739L10.9818 2.8112ZM2.09855 3.53517L2.2063 3.8213H2.55507L2.27291 3.99817L2.38069 4.28431L2.09852 4.10746L1.81642 4.28431L1.92417 3.99817L1.64204 3.8213H1.99077L2.09855 3.53517ZM4.07257 3.53517L4.18035 3.8213H4.52912L4.24696 3.99817L4.35474 4.28431L4.07257 4.10746L3.79047 4.28431L3.89822 3.99817L3.61609 3.8213H3.96482L4.07257 3.53517ZM6.04668 3.53517L6.15443 3.8213H6.5032L6.22103 3.99817L6.32881 4.28431L6.04668 4.10746L5.76455 4.28431L5.8723 3.99817L5.59017 3.8213H5.93893L6.04668 3.53517ZM8.02066 3.53517L8.12841 3.8213H8.47715L8.19501 3.99817L8.30277 4.28431L8.02066 4.10746L7.7385 4.28431L7.84628 3.99817L7.56412 3.8213H7.91288L8.02066 3.53517ZM9.99474 3.53517L10.1025 3.8213H10.4513L10.1691 3.99817L10.2769 4.28431L9.99471 4.10746L9.71261 4.28431L9.82036 3.99817L9.53823 3.8213H9.88696L9.99474 3.53517ZM11.9688 3.53517L12.0766 3.8213H12.4253L12.1432 3.99817L12.251 4.28431L11.9688 4.10746L11.6867 4.28431L11.7944 3.99817L11.5123 3.8213H11.861L11.9688 3.53517ZM3.08561 4.25915L3.19336 4.54531H3.54213L3.25996 4.72214L3.36777 5.0083L3.08561 4.83146L2.80348 5.0083L2.91123 4.72214L2.6291 4.54531H2.97786L3.08561 4.25915ZM5.05959 4.25915L5.16734 4.54531H5.51608L5.23395 4.72214L5.3417 5.0083L5.05959 4.83146L4.77743 5.0083L4.88521 4.72214L4.60305 4.54531H4.95181L5.05959 4.25915ZM7.03367 4.25915L7.14142 4.54531H7.49019L7.20802 4.72214L7.3158 5.0083L7.03364 4.83146L6.75154 5.0083L6.85929 4.72214L6.57716 4.54531H6.92589L7.03367 4.25915ZM9.00775 4.25915L9.1155 4.54531H9.46427L9.1821 4.72214L9.28988 5.0083L9.00775 4.83146L8.72559 5.0083L8.8334 4.72214L8.55124 4.54531H8.9L9.00775 4.25915ZM10.9818 4.25915L11.0895 4.54531H11.4382L11.1561 4.72214L11.2638 5.0083L10.9818 4.83146L10.6996 5.0083L10.8073 4.72214L10.5251 4.54531H10.8739L10.9818 4.25915ZM2.09855 4.98314L2.2063 5.26928H2.55507L2.27291 5.44615L2.38069 5.73228L2.09852 5.55544L1.81642 5.73228L1.92417 5.44615L1.64204 5.26928H1.99077L2.09855 4.98314ZM4.07257 4.98314L4.18035 5.26928H4.52912L4.24696 5.44615L4.35474 5.73228L4.07257 5.55544L3.79047 5.73228L3.89822 5.44615L3.61609 5.26928H3.96482L4.07257 4.98314ZM6.04668 4.98314L6.15443 5.26928H6.5032L6.22103 5.44615L6.32881 5.73228L6.04668 5.55544L5.76455 5.73228L5.8723 5.44615L5.59017 5.26928H5.93893L6.04668 4.98314ZM8.02066 4.98314L8.12841 5.26928H8.47715L8.19501 5.44615L8.30277 5.73228L8.02066 5.55544L7.7385 5.73228L7.84628 5.44615L7.56412 5.26928H7.91288L8.02066 4.98314ZM9.99474 4.98314L10.1025 5.26928H10.4513L10.1691 5.44615L10.2769 5.73228L9.99471 5.55544L9.71261 5.73228L9.82036 5.44615L9.53823 5.26928H9.88696L9.99474 4.98314ZM11.9688 4.98314L12.0766 5.26928H12.4253L12.1432 5.44615L12.251 5.73228L11.9688 5.55544L11.6867 5.73228L11.7944 5.44615L11.5123 5.26928H11.861L11.9688 4.98314ZM3.08561 5.70712L3.19336 5.99329H3.54213L3.25996 6.17012L3.36777 6.45628L3.08561 6.27945L2.80348 6.45628L2.91123 6.17012L2.6291 5.99329H2.97786L3.08561 5.70712ZM5.05959 5.70712L5.16734 5.99329H5.51608L5.23395 6.17012L5.3417 6.45628L5.05959 6.27945L4.77743 6.45628L4.88521 6.17012L4.60305 5.99329H4.95181L5.05959 5.70712ZM7.03367 5.70712L7.14142 5.99329H7.49019L7.20802 6.17012L7.3158 6.45628L7.03364 6.27945L6.75154 6.45628L6.85929 6.17012L6.57716 5.99329H6.92589L7.03367 5.70712ZM9.00775 5.70712L9.1155 5.99329H9.46427L9.1821 6.17012L9.28988 6.45628L9.00775 6.27945L8.72559 6.45628L8.8334 6.17012L8.55124 5.99329H8.9L9.00775 5.70712ZM10.9818 5.70712L11.0895 5.99329H11.4382L11.1561 6.17012L11.2638 6.45628L10.9818 6.27945L10.6996 6.45628L10.8073 6.17012L10.5251 5.99329H10.8739L10.9818 5.70712ZM2.09855 6.43112L2.2063 6.71726H2.55507L2.27291 6.89413L2.38069 7.18026L2.09852 7.00342L1.81642 7.18026L1.92417 6.89413L1.64204 6.71726H1.99077L2.09855 6.43112ZM4.07257 6.43112L4.18035 6.71726H4.52912L4.24696 6.89413L4.35474 7.18026L4.07257 7.00342L3.79047 7.18026L3.89822 6.89413L3.61609 6.71726H3.96482L4.07257 6.43112ZM6.04668 6.43112L6.15443 6.71726H6.5032L6.22103 6.89413L6.32881 7.18026L6.04668 7.00342L5.76455 7.18026L5.8723 6.89413L5.59017 6.71726H5.93893L6.04668 6.43112ZM8.02066 6.43112L8.12841 6.71726H8.47715L8.19501 6.89413L8.30277 7.18026L8.02066 7.00342L7.7385 7.18026L7.84628 6.89413L7.56412 6.71726H7.91288L8.02066 6.43112ZM9.99474 6.43112L10.1025 6.71726H10.4513L10.1691 6.89413L10.2769 7.18026L9.99471 7.00342L9.71261 7.18026L9.82036 6.89413L9.53823 6.71726H9.88696L9.99474 6.43112ZM11.9688 6.43112L12.0766 6.71726H12.4253L12.1432 6.89413L12.251 7.18026L11.9688 7.00342L11.6867 7.18026L11.7944 6.89413L11.5123 6.71726H11.861L11.9688 6.43112ZM3.08561 7.1551L3.19336 7.44126H3.54213L3.25996 7.6181L3.36777 7.90426L3.08561 7.72743L2.80348 7.90426L2.91123 7.6181L2.6291 7.44126H2.97786L3.08561 7.1551ZM5.05959 7.1551L5.16734 7.44126H5.51608L5.23395 7.6181L5.3417 7.90426L5.05959 7.72743L4.77743 7.90426L4.88521 7.6181L4.60305 7.44126H4.95181L5.05959 7.1551ZM7.03367 7.1551L7.14142 7.44126H7.49019L7.20802 7.6181L7.3158 7.90426L7.03364 7.72743L6.75154 7.90426L6.85929 7.6181L6.57716 7.44126H6.92589L7.03367 7.1551ZM9.00775 7.1551L9.1155 7.44126H9.46427L9.1821 7.6181L9.28988 7.90426L9.00775 7.72743L8.72559 7.90426L8.8334 7.6181L8.55124 7.44126H8.9L9.00775 7.1551ZM10.9818 7.1551L11.0895 7.44126H11.4382L11.1561 7.6181L11.2638 7.90426L10.9818 7.72743L10.6996 7.90426L10.8073 7.6181L10.5251 7.44126H10.8739L10.9818 7.1551ZM2.09855 7.8791L2.2063 8.16523H2.55507L2.27291 8.3421L2.38069 8.62824L2.09852 8.4514L1.81642 8.62824L1.92417 8.3421L1.64204 8.16523H1.99077L2.09855 7.8791ZM4.07257 7.8791L4.18035 8.16523H4.52912L4.24696 8.3421L4.35474 8.62824L4.07257 8.4514L3.79047 8.62824L3.89822 8.3421L3.61609 8.16523H3.96482L4.07257 7.8791ZM6.04668 7.8791L6.15443 8.16523H6.5032L6.22103 8.3421L6.32881 8.62824L6.04668 8.4514L5.76455 8.62824L5.8723 8.3421L5.59017 8.16523H5.93893L6.04668 7.8791ZM8.02066 7.8791L8.12841 8.16523H8.47715L8.19501 8.3421L8.30277 8.62824L8.02066 8.4514L7.7385 8.62824L7.84628 8.3421L7.56412 8.16523H7.91288L8.02066 7.8791ZM9.99474 7.8791L10.1025 8.16523H10.4513L10.1691 8.3421L10.2769 8.62824L9.99471 8.4514L9.71261 8.62824L9.82036 8.3421L9.53823 8.16523H9.88696L9.99474 7.8791ZM11.9688 7.8791L12.0766 8.16523H12.4253L12.1432 8.3421L12.251 8.62824L11.9688 8.4514L11.6867 8.62824L11.7944 8.3421L11.5123 8.16523H11.861L11.9688 7.8791Z" fill="white"/>
</g>
<path d="M19.8117 1.55322H3.18831C1.89725 1.55322 0.850647 2.45618 0.850647 3.57003V13.43C0.850647 14.5438 1.89725 15.4468 3.18831 15.4468H19.8117C21.1027 15.4468 22.1493 14.5438 22.1493 13.43V3.57003C22.1493 2.45618 21.1027 1.55322 19.8117 1.55322Z" stroke="#EFEFEF" stroke-width="0.5"/>
</g>
<defs>
<clipPath id="clip0_183_1784">
<rect width="22.8571" height="15.2381" fill="white" transform="translate(0.0714264 0.880951)"/>
</clipPath>
</defs>
</svg>
