<svg width="33" height="32" viewBox="0 0 33 32" fill="none" xmlns="http://www.w3.org/2000/svg">
<path fill-rule="evenodd" clip-rule="evenodd" d="M16.4998 5.53333C14.9118 5.53333 13.0598 5.57067 11.2545 5.62133L11.1812 5.624C9.34384 5.676 7.86117 5.71733 6.69317 5.91067C5.47584 6.112 4.46517 6.49733 3.65717 7.328C2.8465 8.16133 2.49317 9.192 2.3265 10.4253C2.1665 11.612 2.1665 13.116 2.1665 14.9853V17.0173C2.1665 18.884 2.1665 20.388 2.3265 21.576C2.49184 22.8093 2.8465 23.84 3.65717 24.6733C4.46517 25.5053 5.47584 25.8893 6.69317 26.0907C7.86117 26.284 9.34384 26.3253 11.1812 26.3773L11.2545 26.38C13.0612 26.4307 14.9118 26.468 16.4998 26.468C18.0878 26.468 19.9398 26.4307 21.7452 26.38L21.8185 26.3773C23.6558 26.3253 25.1385 26.284 26.3065 26.0907C27.5238 25.8893 28.5345 25.504 29.3425 24.6733C30.1532 23.84 30.5078 22.8093 30.6732 21.576C30.8332 20.3893 30.8332 18.8853 30.8332 17.016V14.984C30.8332 13.116 30.8332 11.612 30.6732 10.4253C30.5078 9.192 30.1532 8.16133 29.3425 7.328C28.5345 6.496 27.5238 6.112 26.3065 5.91067C25.1385 5.71733 23.6558 5.676 21.8172 5.624L21.7452 5.62133C19.9972 5.56828 18.2486 5.53894 16.4998 5.53333ZM14.9958 19.5347C14.8438 19.6215 14.6716 19.6669 14.4965 19.6663C14.3213 19.6657 14.1494 19.6192 13.998 19.5313C13.8465 19.4434 13.7208 19.3173 13.6334 19.1656C13.5459 19.0138 13.4999 18.8418 13.4998 18.6667V13.3333C13.4999 13.1582 13.5459 12.9862 13.6334 12.8344C13.7208 12.6827 13.8465 12.5566 13.998 12.4687C14.1494 12.3808 14.3213 12.3343 14.4965 12.3337C14.6716 12.3331 14.8438 12.3785 14.9958 12.4653L19.6625 15.132C19.8155 15.2195 19.9426 15.3459 20.031 15.4983C20.1194 15.6507 20.1659 15.8238 20.1659 16C20.1659 16.1762 20.1194 16.3493 20.031 16.5017C19.9426 16.6541 19.8155 16.7805 19.6625 16.868L14.9958 19.5347Z" fill="#FAF9F6"/>
</svg>
